<svg width="60" height="44" viewBox="0 0 60 44" fill="none" xmlns="http://www.w3.org/2000/svg">
<path d="M57.9583 2.04157C57.5709 1.65104 57.1101 1.34106 56.6024 1.12953C56.0946 0.91799 55.55 0.809082 55 0.809082C54.4499 0.809082 53.9053 0.91799 53.3976 1.12953C52.8898 1.34106 52.429 1.65104 52.0416 2.04157L21 33.1249L7.95829 20.0416C7.55611 19.6531 7.08136 19.3476 6.56113 19.1426C6.0409 18.9376 5.48538 18.837 4.9263 18.8467C4.36721 18.8564 3.8155 18.9761 3.30268 19.199C2.78985 19.4219 2.32595 19.7436 1.93745 20.1457C1.54896 20.5479 1.24348 21.0227 1.03847 21.5429C0.833451 22.0631 0.732908 22.6186 0.742581 23.1777C0.752253 23.7368 0.871953 24.2885 1.09484 24.8013C1.31773 25.3142 1.63945 25.7781 2.04162 26.1666L18.0416 42.1666C18.429 42.5571 18.8898 42.8671 19.3976 43.0786C19.9053 43.2902 20.4499 43.3991 21 43.3991C21.55 43.3991 22.0946 43.2902 22.6024 43.0786C23.1101 42.8671 23.5709 42.5571 23.9583 42.1666L57.9583 8.16658C58.3812 7.7764 58.7188 7.30285 58.9496 6.77577C59.1805 6.24869 59.2997 5.6795 59.2997 5.10408C59.2997 4.52865 59.1805 3.95946 58.9496 3.43238C58.7188 2.9053 58.3812 2.43175 57.9583 2.04157V2.04157Z" fill="#34C759"/>
</svg>
