<svg width="22" height="22" viewBox="0 0 22 22" fill="none" xmlns="http://www.w3.org/2000/svg">
<path fill-rule="evenodd" clip-rule="evenodd" d="M11 1.75C5.89137 1.75 1.75 5.89137 1.75 11C1.75 16.1086 5.89137 20.25 11 20.25C16.1086 20.25 20.25 16.1086 20.25 11C20.25 5.89137 16.1086 1.75 11 1.75ZM0.25 11C0.25 5.06294 5.06294 0.25 11 0.25C16.9371 0.25 21.75 5.06294 21.75 11C21.75 16.9371 16.9371 21.75 11 21.75C5.06294 21.75 0.25 16.9371 0.25 11ZM11 6.75C10.3787 6.75 9.875 7.25368 9.875 7.875C9.875 8.28921 9.53921 8.625 9.125 8.625C8.71079 8.625 8.375 8.28921 8.375 7.875C8.375 6.42525 9.55025 5.25 11 5.25C12.4497 5.25 13.625 6.42525 13.625 7.875C13.625 8.83834 13.1056 9.67957 12.3353 10.1354C12.1385 10.2518 11.9761 10.3789 11.8703 10.5036C11.7675 10.6246 11.75 10.7036 11.75 10.75V12C11.75 12.4142 11.4142 12.75 11 12.75C10.5858 12.75 10.25 12.4142 10.25 12V10.75C10.25 10.2441 10.4715 9.83364 10.7266 9.53301C10.9786 9.23602 11.2929 9.0092 11.5715 8.84439C11.9044 8.64739 12.125 8.28655 12.125 7.875C12.125 7.25368 11.6213 6.75 11 6.75ZM11 16C11.5523 16 12 15.5523 12 15C12 14.4477 11.5523 14 11 14C10.4477 14 10 14.4477 10 15C10 15.5523 10.4477 16 11 16Z" fill="white"/>
</svg>
