<svg width="52" height="52" viewBox="0 0 52 52" fill="none" xmlns="http://www.w3.org/2000/svg">
<path d="M31.875 26L49.7917 8.12496C50.5763 7.34036 51.017 6.27622 51.017 5.16663C51.017 4.05704 50.5763 2.99289 49.7917 2.20829C49.0071 1.42369 47.9429 0.98291 46.8333 0.98291C45.7237 0.98291 44.6596 1.42369 43.875 2.20829L26 20.125L8.12499 2.20829C7.34039 1.42369 6.27625 0.98291 5.16666 0.98291C4.05707 0.98291 2.99292 1.42369 2.20832 2.20829C1.42372 2.99289 0.982941 4.05704 0.982941 5.16663C0.982941 6.27622 1.42372 7.34036 2.20832 8.12496L20.125 26L2.20832 43.875C1.81779 44.2623 1.50781 44.7231 1.29628 45.2309C1.08474 45.7386 0.97583 46.2832 0.97583 46.8333C0.97583 47.3833 1.08474 47.9279 1.29628 48.4357C1.50781 48.9434 1.81779 49.4043 2.20832 49.7916C2.59567 50.1822 3.05651 50.4921 3.56425 50.7037C4.072 50.9152 4.61661 51.0241 5.16666 51.0241C5.71671 51.0241 6.26131 50.9152 6.76906 50.7037C7.27681 50.4921 7.73764 50.1822 8.12499 49.7916L26 31.875L43.875 49.7916C44.2623 50.1822 44.7232 50.4921 45.2309 50.7037C45.7387 50.9152 46.2833 51.0241 46.8333 51.0241C47.3834 51.0241 47.928 50.9152 48.4357 50.7037C48.9435 50.4921 49.4043 50.1822 49.7917 49.7916C50.1822 49.4043 50.4922 48.9434 50.7037 48.4357C50.9152 47.9279 51.0242 47.3833 51.0242 46.8333C51.0242 46.2832 50.9152 45.7386 50.7037 45.2309C50.4922 44.7231 50.1822 44.2623 49.7917 43.875L31.875 26Z" fill="#FF3B30"/>
</svg>
