<svg width="34" height="36" viewBox="0 0 34 36" fill="none" xmlns="http://www.w3.org/2000/svg">
<path d="M22.0991 15.4991C22.5589 14.9841 22.5141 14.194 21.9992 13.7342C21.4842 13.2744 20.694 13.3191 20.2342 13.8341L15.2143 19.4564L13.7658 17.8341C13.306 17.3191 12.5158 17.2744 12.0008 17.7342C11.4859 18.1939 11.4411 18.9841 11.9009 19.4991L14.2819 22.1658C14.519 22.4314 14.8582 22.5833 15.2143 22.5833C15.5704 22.5833 15.9096 22.4314 16.1467 22.1658L22.0991 15.4991Z" fill="#65558F"/>
<path fill-rule="evenodd" clip-rule="evenodd" d="M17 0.083252C15.4375 0.083252 13.9455 0.594223 11.539 1.41844L10.3266 1.83348C7.8577 2.67858 5.95234 3.33079 4.58838 3.88489C3.90131 4.16402 3.31061 4.43437 2.83497 4.7106C2.37724 4.97642 1.91804 5.30799 1.60605 5.75249C1.29767 6.19185 1.13822 6.73199 1.03802 7.25195C0.933853 7.79252 0.87104 8.44098 0.830498 9.18552C0.75 10.6639 0.75 12.6891 0.75 15.316V17.9855C0.75 28.1539 8.43005 33.0291 12.9972 35.0242L13.0424 35.0439C13.6087 35.2914 14.141 35.524 14.7527 35.6806C15.3984 35.8459 16.0846 35.9166 17 35.9166C17.9154 35.9166 18.6016 35.8459 19.2473 35.6806C19.859 35.524 20.3913 35.2914 20.9576 35.0439L21.0028 35.0242C25.57 33.0291 33.25 28.1539 33.25 17.9855V15.3163C33.25 12.6893 33.25 10.6639 33.1695 9.18552C33.129 8.44098 33.0661 7.79252 32.962 7.25195C32.8618 6.73199 32.7023 6.19185 32.3939 5.75249C32.082 5.30799 31.6228 4.97642 31.165 4.7106C30.6894 4.43437 30.0987 4.16402 29.4116 3.88489C28.0477 3.33079 26.1423 2.67858 23.6734 1.83347L22.461 1.41845C20.0545 0.594224 18.5625 0.083252 17 0.083252ZM12.1344 3.85708C14.8252 2.93598 15.9038 2.58325 17 2.58325C18.0962 2.58325 19.1748 2.93598 21.8656 3.85708L22.8203 4.18387C25.3413 5.04682 27.1798 5.67666 28.4707 6.20106C29.115 6.46282 29.5818 6.68216 29.9095 6.87247C30.0713 6.96642 30.1828 7.04395 30.2572 7.10446C30.3203 7.15573 30.3444 7.18478 30.3478 7.18905C30.351 7.19425 30.3718 7.22886 30.401 7.31081C30.4343 7.40433 30.4712 7.5384 30.5071 7.72501C30.5799 8.10274 30.6351 8.62161 30.6732 9.32145C30.7495 10.7234 30.75 12.6805 30.75 15.361V17.9855C30.75 26.6107 24.3002 30.8557 20.002 32.7332C19.3829 33.0037 19.0254 33.1568 18.6273 33.2587C18.2472 33.356 17.7833 33.4166 17 33.4166C16.2167 33.4166 15.7528 33.356 15.3727 33.2587C14.9746 33.1568 14.6171 33.0037 13.998 32.7332C9.69983 30.8557 3.25 26.6107 3.25 17.9855V15.361C3.25 12.6805 3.25046 10.7234 3.3268 9.32145C3.36491 8.62161 3.42007 8.10274 3.49286 7.72501C3.52882 7.5384 3.56574 7.40433 3.59905 7.31081C3.62821 7.22893 3.64893 7.1943 3.65215 7.18906C3.6556 7.18483 3.67966 7.15577 3.74278 7.10446C3.81723 7.04395 3.9287 6.96642 4.09048 6.87247C4.41817 6.68216 4.885 6.46281 5.52932 6.20106C6.82016 5.67666 8.65868 5.04682 11.1797 4.18387L12.1344 3.85708Z" fill="#65558F"/>
</svg>
