<svg width="34" height="34" viewBox="0 0 34 34" fill="none" xmlns="http://www.w3.org/2000/svg">
<path fill-rule="evenodd" clip-rule="evenodd" d="M5.46472 5.44843C11.7903 -0.868202 22.073 -0.801039 28.4372 5.5632C34.8042 11.9302 34.8687 22.219 28.5438 28.5439C22.219 34.8688 11.9301 34.8043 5.56314 28.4373C1.79006 24.6642 0.231974 19.5168 0.901028 14.6356C0.994778 13.9517 1.62524 13.4732 2.3092 13.5669C2.99316 13.6607 3.47162 14.2912 3.37787 14.9751C2.81125 19.109 4.12995 23.4686 7.33091 26.6695C12.7384 32.077 21.4442 32.108 26.7761 26.7761C32.1079 21.4443 32.0769 12.7384 26.6695 7.33097C21.2648 1.92627 12.5651 1.89256 7.23249 7.2162L8.47866 7.22246C9.16901 7.22593 9.72583 7.78838 9.72236 8.47872C9.71889 9.16907 9.15644 9.72589 8.4661 9.72243L4.22351 9.70111C3.53806 9.69766 2.98325 9.14285 2.97981 8.4574L2.95849 4.21482C2.95502 3.52447 3.51184 2.96202 4.20219 2.95855C4.89254 2.95508 5.45499 3.51191 5.45846 4.20225L5.46472 5.44843ZM17 9.08344C17.6904 9.08344 18.25 9.64309 18.25 10.3334V16.4823L22.0506 20.2829C22.5387 20.771 22.5387 21.5625 22.0506 22.0507C21.5624 22.5388 20.771 22.5388 20.2828 22.0507L15.75 17.5179V10.3334C15.75 9.64309 16.3097 9.08344 17 9.08344Z" fill="#65558F"/>
</svg>
