<svg width="26" height="36" viewBox="0 0 26 36" fill="none" xmlns="http://www.w3.org/2000/svg">
<path fill-rule="evenodd" clip-rule="evenodd" d="M0.083252 12.9999C0.083252 5.86624 5.86624 0.083252 12.9999 0.083252C20.1336 0.083252 25.9166 5.86624 25.9166 12.9999V22.9999C25.9166 30.1336 20.1336 35.9166 12.9999 35.9166C5.86624 35.9166 0.083252 30.1336 0.083252 22.9999V12.9999ZM11.7499 2.65748C6.5863 3.27501 2.58325 7.66998 2.58325 12.9999V22.9999C2.58325 28.7529 7.24695 33.4166 12.9999 33.4166C18.7529 33.4166 23.4166 28.7529 23.4166 22.9999V12.9999C23.4166 7.66998 19.4135 3.27501 14.2499 2.65748V8.62997C15.7064 9.14476 16.7499 10.5338 16.7499 12.1666V15.4999C16.7499 17.571 15.071 19.2499 12.9999 19.2499C10.9289 19.2499 9.24992 17.571 9.24992 15.4999V12.1666C9.24992 10.5338 10.2934 9.14476 11.7499 8.62997V2.65748ZM12.9999 10.9166C12.3096 10.9166 11.7499 11.4762 11.7499 12.1666V15.4999C11.7499 16.1903 12.3096 16.7499 12.9999 16.7499C13.6903 16.7499 14.2499 16.1903 14.2499 15.4999V12.1666C14.2499 11.4762 13.6903 10.9166 12.9999 10.9166Z" fill="#65558F"/>
</svg>
